<svg t="1582221871004" class="icon" viewBox="0 0 1024 1024" version="1.1" xmlns="http://www.w3.org/2000/svg" p-id="8337" width="200" height="200"><path d="M512 608C565.019336 608 608 565.019336 608 512 608 458.980664 565.019336 416 512 416 458.980664 416 416 458.980664 416 512 416 565.019336 458.980664 608 512 608ZM160 608C213.019336 608 256 565.019336 256 512 256 458.980664 213.019336 416 160 416 106.980664 416 64 458.980664 64 512 64 565.019336 106.980664 608 160 608ZM864 608C917.019336 608 960 565.019336 960 512 960 458.980664 917.019336 416 864 416 810.980664 416 768 458.980664 768 512 768 565.019336 810.980664 608 864 608Z" p-id="8338"></path></svg>